<?xml version="1.0" encoding="UTF-8"?>
<svg xmlns="http://www.w3.org/2000/svg" id="Ebene_1" data-name="Ebene 1" viewBox="0 0 687.68 173.38">
  <defs>
    <style>
      .cls-1 {
        fill: #ec680a;
      }

      .cls-2 {
        fill: #95c121;
      }

      .cls-3 {
        fill: #ec6709;
      }

      .cls-4 {
        fill: #95c120;
      }
    </style>
  </defs>
  <path class="cls-3" d="M112.19,113c-.1.01-.14,0-.17.02-1.25.73-2.48,1.46-3.72,2.18-8.68,5.02-18.01,6.8-27.82,4.82-8.52-1.72-15.12-6.68-20.19-13.63-4.62-6.35-6.7-13.59-6.35-21.41.46-10.28,4.62-18.97,12.73-25.3,12.06-9.43,25.14-10.53,38.81-3.54,2.22,1.14,4.34,2.46,6.52,3.7.17-.31-.04-.5-.11-.72-1.2-3.47-2.4-6.93-3.61-10.4-4.94-14.2-9.89-28.41-14.84-42.61-.54-1.55-1.21-3.04-2.3-4.3-2.07-2.41-4.95-2.41-7.01.01-1.21,1.43-1.88,3.14-2.46,4.89-5.23,15.66-10.48,31.33-15.67,47.01-.66,2.02-1.42,3.84-3.26,5.08-.87.59-1.44,1.51-2.55,1.9-17.68,6.11-35.35,12.26-53.01,18.42-2.01.7-3.93,1.58-5.44,3.16-2.33,2.43-2.31,5.75.04,8.15,1.56,1.59,3.53,2.45,5.59,3.14,17.18,5.74,34.37,11.48,51.56,17.22.41.14.86.2,1.18.54,2.31,2.43,5.04,4.54,5.64,8.18.18,1.09.68,2.12,1.05,3.18,5.12,14.72,10.24,29.45,15.38,44.17.6,1.73,1.31,3.44,2.6,4.81,2.24,2.38,5.18,2.27,7.24-.26,1.22-1.48,1.9-3.23,2.49-5.02,5.84-17.47,11.67-34.95,17.5-52.43.1-.3.33-.6.18-.96ZM85.59,4.98c.14.04.27.08.41.11v12.35c0,8.75-.01,17.51,0,26.27,0,1.4.04,2.79.07,4.19.01.43,0,.79-.58.84-2.75.26-5.45.74-8.1,1.55-2.59.8-5.16,1.62-7.92,2.9,5.43-16.25,10.78-32.23,16.12-48.21ZM37.96,100.62c-9.73-3.25-19.46-6.5-29.19-9.75-1.6-.53-3.18-1.11-4.48-2.22,0,0-1.13-.91-1.23-1.85,0-.02,0-.2-.02-.58-.01-.34,0-.42.05-.5.14-.18.47-.14.59-.12,26.82.48,45.58.79,46.23.72.05,0,.41-.06.64.14.13.12.18.32.18.65.17,6.85,1.99,13.22,5.57,19.07.08.14.13.29.29.64-6.38-2.12-12.51-4.16-18.63-6.2ZM105.54,122.01c-4.85,14.56-9.71,29.13-14.57,43.69-.35,1.07-.76,2.11-1.44,3.01-.34.46-.64,1.02-1.17,1.07,0-13.83,0-27.64-.01-41.45,0-1.08.01-2.16-.04-3.24-.03-.62.18-.81.81-.82,5.68-.15,11.17-1.18,16.36-3.6.1-.04.22-.03.35-.04.17.53-.14.95-.29,1.38Z"></path>
  <path class="cls-4" d="M178.56,75.96c-.64-3.78-2.81-6.54-6.29-8.24-1.48-.72-3.03-1.25-4.64-1.53-6.62-1.14-13.29-1.1-19.94-.42-4.04.42-7.65,1.74-9.75,5.6-.15.28-.38.41-.69.34-.39-.09-.3-.42-.31-.68-.01-1.2-.05-2.4.02-3.6.04-.84-.23-1.08-1.07-1.07-3.96.04-7.92.06-11.88-.01-1.04-.02-1.23.33-1.22,1.29.03,9.03.02,18.06.02,27.1s.01,18.14-.02,27.22c0,.88.21,1.15,1.12,1.14,4.28-.05,8.56-.05,12.84,0,.93.01,1.1-.28,1.1-1.14-.04-6.56-.02-13.12-.01-19.67,0-.33-.21-.8.21-.97.52-.22.65.34.86.63,1.82,2.63,4.26,4.29,7.43,4.8,7.24,1.18,14.5,1.07,21.7-.23,6.62-1.2,9.72-4.37,10.71-10.99.98-6.51.91-13.07-.19-19.57ZM163.95,90.89c-.36,2.27-1.59,3.76-3.86,4.37-2.61.71-5.28.83-7.96.89-3.11.06-6.23-.03-9.29-.71-3.09-.69-4.46-2.29-4.82-5.45-.31-2.68-.26-5.34.26-7.99.49-2.52,1.86-4.12,4.5-4.63,2.8-.54,5.62-.69,8.46-.68,2.8-.01,5.6.04,8.34.72,2.96.75,4.27,2.2,4.56,5.24.27,2.75.26,5.5-.19,8.24Z"></path>
  <path class="cls-4" d="M627.84,78.23c0-9.04,0-18.08.02-27.11,0-.87-.18-1.16-1.11-1.15-4.2.05-8.4.06-12.6,0-1.06-.02-1.33.28-1.32,1.33.05,6.44.03,12.88.02,19.31,0,.36.26.9-.27,1.04-.51.13-.6-.45-.8-.76-1.81-2.82-4.37-4.49-7.69-4.96-6.74-.95-13.49-.87-20.2.09-7.16,1.04-10.71,4.52-11.88,11.5-.92,5.5-.73,11.07-.2,16.61.17,1.75.48,3.49,1.17,5.12,2.01,4.7,5.97,6.69,10.69,7.46,5.78.95,11.62,1.03,17.45.5,4.55-.42,9.06-1.1,11.61-5.68.17-.3.42-.37.71-.3.4.11.23.46.24.7.01,1.16.06,2.33-.01,3.48-.06.86.24,1.06,1.07,1.05,3.96-.04,7.92-.05,11.88.01,1,.02,1.25-.26,1.24-1.25-.04-9-.02-17.99-.02-26.99ZM612.64,90.6c-.36,2.54-1.8,4.05-4.3,4.68-2.97.74-6,.8-8.71.89-2.68-.02-5.03-.13-7.36-.49-3.62-.56-5.04-1.9-5.56-5.5-.38-2.65-.4-5.33.08-7.99.48-2.63,1.92-4.3,4.64-4.79,5.44-.98,10.88-1.01,16.32-.13,2.8.46,4.5,2.09,4.89,4.97.38,2.79.4,5.57,0,8.36Z"></path>
  <path class="cls-3" d="M461.01,91.41c0-3.4.05-6.8-.01-10.2-.04-2.43-.13-4.87-.76-7.25-1.23-4.67-5.38-7.79-10.88-8.27-5.87-.5-11.74-.53-17.61-.34-3.99.13-7.99.28-11.92,1.08-6.33,1.28-10.72,4.59-11.21,11.62-.04.67.04.9.76.9,4.44-.04,8.88-.02,13.32-.01.51,0,.81-.05.99-.69.58-2.13,1.41-2.69,3.65-2.99,1.95-.25,3.91-.25,5.86-.3,3.11-.09,6.23-.09,9.31.51,1.87.36,2.81,1.47,3.2,3.25.31,1.47.26,2.94.25,4.42,0,.32.22.78-.23.94-.36.13-.56-.24-.78-.45-1.41-1.35-3.08-2.18-5.01-2.32-7.55-.55-15.1-.51-22.6.5-5.6.76-9.08,4.01-10.01,9.02-.48,2.61-.48,5.24-.07,7.87.63,4,2.9,6.55,6.74,7.73,1.34.41,2.71.66,4.11.78,5.79.48,11.58.35,17.36-.04,4.3-.3,8.07-1.63,10.26-5.74.11-.21.24-.46.53-.39.31.08.28.36.28.59.01,1.28.05,2.56-.01,3.84-.05.82.28.99,1.03.99,4.12-.03,8.24-.05,12.36.01.92.01,1.12-.28,1.11-1.15-.04-4.64-.02-9.28-.02-13.91ZM443.1,96.85c-2.42.81-4.95.9-7.46.96-3.43.08-6.87.22-10.27-.45-1.42-.29-2.69-.83-3.19-2.36-.73-2.24.49-4.26,2.98-4.83,3.06-.69,6.19-.5,8.8-.6,3.09.15,5.69.04,8.27.32,1.91.21,3.25,1.3,3.47,2.91.25,1.89-.67,3.4-2.6,4.05Z"></path>
  <path class="cls-4" d="M240.19,78.79c-.21-2.39-.63-4.76-1.99-6.83-2.16-3.33-5.47-4.78-9.17-5.54-5.43-1.1-10.96-1.03-16.13-1.08-6.1.03-11.85.07-17.54,1.09-6.9,1.23-10.65,5.26-11.28,12.16-.47,5.19-.36,10.38.08,15.56.31,3.73,1.38,7.14,4.52,9.55,2.73,2.09,5.93,2.95,9.26,3.22,9.86.81,19.71.88,29.56-.2,7.7-.84,11.55-4.43,12.56-12.03.71-5.28.6-10.6.13-15.9ZM224.98,91.07c-.55,2.45-2.02,3.88-4.48,4.38-3.74.75-7.53.81-11.32.63-2.03-.1-4.05-.28-6.03-.84-2.43-.68-3.81-2.22-4.11-4.72-.33-2.78-.38-5.56.16-8.33.59-2.95,2.07-4.42,5.07-4.96,2.57-.47,5.15-.57,7.85-.53,2.5-.06,5.09.05,7.66.53,3.59.68,4.99,2.01,5.47,5.62.36,2.73.35,5.49-.27,8.22Z"></path>
  <path class="cls-4" d="M86.88,91.4c-4.27-.29-8.56-.1-12.82-.51-1.92-.18-3.78-.63-5.57-1.33-3.54-1.38-5.47-4.04-5.99-7.73-.34-2.42-.33-4.87.26-7.27,1.23-4.99,4.72-7.35,9.55-8.15,4.03-.67,8.09-.92,12.17-.98,6.31-.1,12.63-.21,18.92.49,1.71.19,3.38.54,5.01,1.11,3.8,1.31,6.02,3.88,6.54,7.91.37,2.79.42,2.78-2.37,2.78-3.84,0-7.68-.02-11.52.01-.75,0-1.28-.06-1.5-.93-.17-.7-.77-1.07-1.46-1.3-.96-.32-1.94-.49-2.94-.56-4.91-.36-9.81-.44-14.7.34-.67.11-1.32.32-1.91.67-.82.48-1.32,1.16-1.26,2.15.06,1.03.65,1.68,1.57,2.07,1.33.56,2.75.48,4.14.51,4.52.1,9.04.05,13.55.19,3.31.1,6.64-.1,9.93.4,1.54.24,3.05.58,4.52,1.14,3.16,1.21,5.11,3.48,5.85,6.76.67,3.01.63,6.03-.08,9.03-1.06,4.5-4.18,6.79-8.48,7.78-4.66,1.07-9.41,1.32-14.16,1.43-6.27.13-12.55.18-18.81-.45-1.95-.2-3.87-.55-5.72-1.22-4.47-1.63-6.9-4.85-7.43-9.53-.29-2.55-.27-2.55,2.24-2.55,3.96,0,7.92,0,11.88,0,.45,0,.94-.15,1.09.58.38,1.83,1.72,2.7,3.41,3.13,2.3.59,4.65.71,7.02.73,3.56.03,7.12.11,10.65-.48.87-.15,1.72-.37,2.48-.84,1.87-1.16,1.79-3.63-.14-4.68-1.29-.7-2.72-.64-4.1-.67-3.27-.07-6.55-.02-9.83-.02Z"></path>
  <path class="cls-4" d="M687.11,77.47c-.78-4.78-2.95-8.48-7.72-10.24-1.7-.63-3.43-1.12-5.22-1.28-9.3-.84-18.59-.91-27.87.24-7.31.91-11.4,4.59-12.35,11.56-.8,5.83-.71,11.71.05,17.57.41,3.14,1.53,5.94,4.03,8.04,2.05,1.71,4.48,2.61,7.05,3.11,5.6,1.11,11.28,1.05,16.96.99,4.83-.05,9.67-.16,14.42-1.21,6.81-1.5,9.86-4.81,10.82-11.67.07-.49.28-1.03-.62-1.02-4.52.02-9.04.01-13.56,0-.49,0-.76.17-.83.64-.32,2.12-1.84,2.87-3.69,3.15-4.65.73-9.33.75-13.98.17-4.8-.6-6-2.08-6.14-6.75-.03-.92.25-1.11,1.12-1.1,6.16.04,12.32.02,18.48.02s12.32,0,18.47-.01c.53,0,1.11.21,1.12-.74.08-3.84.09-7.67-.54-11.47ZM671.63,81.49h-11.14c-3.67,0-7.34-.03-11.01.02-.91.02-1.06-.27-.93-1.1.53-3.27,1.7-4.58,5.04-5.14,4.87-.81,9.77-.84,14.64.04,3.33.59,4.44,2.14,4.35,5.5-.03.78-.48.68-.95.68Z"></path>
  <path class="cls-3" d="M347.43,86.33c0-6.28.02-12.56-.02-18.83,0-.88.2-1.15,1.12-1.14,4,.05,8,.05,12,0,.85,0,1.1.24,1.06,1.07-.06,1.44-.02,2.88-.01,4.32,0,.26-.1.6.3.68.25.05.45-.04.59-.29,2.51-4.64,6.81-6.16,11.67-6.57,5.23-.44,10.47-.44,15.63.67,5.91,1.27,11.33,5.84,11.77,14.01.46,8.47.13,16.95.26,25.42.01.67-.25.79-.84.78-4.4-.02-8.8-.04-13.2.01-1,.01-.97-.49-.96-1.18.01-5.72.04-11.44-.01-17.16-.02-1.95,0-3.91-.27-5.86-.36-2.53-1.74-4.14-4.21-4.8-3.65-.98-7.36-.88-11.08-.62-1.07.08-2.14.28-3.17.59-3.39,1-5.06,3.11-5.39,6.65-.28,3.07-.18,6.15-.23,9.23-.07,4.34.19,8.69-.13,13.03-4.35.22-8.7.03-13.05.1-.16,0-.32-.02-.48,0-1.03.17-1.36-.19-1.35-1.28.06-6.28.03-12.56.03-18.83Z"></path>
  <path class="cls-4" d="M329.7,77.07c-3.6,0-7.2.02-10.79-.01-.76,0-1.06.17-1.04.99.1,4.63-.13,9.27.14,13.9.19,3.22,1.48,4.52,4.68,4.69,1.32.07,2.64.07,3.93-.25,1.91-.47,2.85-1.53,3.04-3.51.08-.91.1-1.84.07-2.75-.02-.66.16-.91.87-.9,4,.03,8,.01,11.99.02.36,0,.89-.17.86.49-.14,3.46.03,6.98-1.51,10.22-1.97,4.16-5.47,6.22-9.88,6.86-6.48.95-13,1.04-19.46,0-6.34-1.03-9.43-4.79-9.63-11.47-.17-5.67-.1-11.35-.08-17.02,0-.97-.22-1.33-1.24-1.28-1.88.08-3.76-.02-5.64.04-.87.03-1.05-.28-1.04-1.09.05-2.84.05-5.68,0-8.51-.02-.86.16-1.18,1.1-1.14,1.96.08,3.92,0,5.88.04.75.02.95-.23.94-.96-.04-2.44.01-4.88-.03-7.31-.01-.74.22-.95.95-.94,4.36.03,8.72.03,13.07,0,.77,0,1.05.2,1.03,1-.05,2.36.02,4.72-.04,7.07-.02.89.23,1.15,1.14,1.14,7.12-.04,14.23,0,21.35-.04.89,0,1.24.15,1.21,1.15-.08,2.84-.06,5.68,0,8.51.01.83-.21,1.08-1.06,1.07-3.6-.05-7.2-.02-10.79-.02Z"></path>
  <path class="cls-3" d="M491.58,94.66c3.96-9.1,7.84-17.98,11.66-26.88.46-1.06.95-1.46,2.16-1.44,5.11.08,10.22.04,15.54.04-.79,1.62-1.51,3.12-2.24,4.6-5.64,11.45-11.29,22.89-16.9,34.35-.4.81-.83,1.16-1.79,1.15-5.68-.06-11.35-.05-17.03,0-.91,0-1.33-.31-1.71-1.09-6.22-12.67-12.46-25.33-18.72-37.98-.42-.86-.29-1.04.65-1.04,5,.04,9.99.03,14.99,0,.76,0,1.1.25,1.4.94,3.78,8.7,7.6,17.39,11.41,26.08.16.36.33.71.6,1.29Z"></path>
  <path class="cls-4" d="M246.16,86.38c0-6.28.02-12.56-.02-18.83,0-.94.25-1.21,1.19-1.19,3.92.05,7.84.06,11.76,0,1.05-.02,1.27.34,1.22,1.29-.08,1.35-.03,2.72-.01,4.08,0,.25-.12.6.3.67.27.05.44-.1.57-.33,2.99-5.34,8.04-6.53,13.57-6.69,2.32-.07,4.63-.01,6.94.3,6.46.88,9.79,4.2,10.67,10.69.32,2.35.33,4.7.29,7.05,0,.64-.21.81-.83.81-4.16-.02-8.32-.03-12.48,0-.78,0-.9-.31-.92-.99-.11-4.66-1.71-6.28-6.39-6.5-1.36-.06-2.72-.11-4.06.16-4.08.79-6.21,3.21-6.57,7.38-.42,4.87-.16,9.75-.23,14.62-.03,2.12-.07,4.24.02,6.36.04,1.04-.32,1.23-1.28,1.22-4.16-.05-8.32-.05-12.48,0-.99.01-1.29-.24-1.28-1.25.06-4.24.02-8.48.02-12.72v-6.12Z"></path>
  <path class="cls-3" d="M523.17,86.4c0-6.27.03-12.55-.03-18.82,0-1.02.28-1.24,1.26-1.23,4.2.06,8.39.05,12.59,0,.88,0,1.23.15,1.22,1.15-.04,12.59-.04,25.18,0,37.77,0,.97-.29,1.19-1.21,1.18-4.2-.05-8.39-.05-12.59,0-.98.01-1.27-.23-1.27-1.24.05-6.27.02-12.55.02-18.82Z"></path>
  <path class="cls-2" d="M555.42,91.37c2.72,0,5.43.02,8.15-.01.66,0,.9.16.89.86-.03,4.47-.02,8.94,0,13.41,0,.62-.19.83-.82.83-5.51-.02-11.02-.02-16.53,0-.75,0-.83-.33-.83-.94.02-4.43.02-8.86,0-13.29,0-.69.21-.88.88-.87,2.75.03,5.51.01,8.27.01Z"></path>
  <path class="cls-1" d="M530.65,49.99c2.2,0,4.39.03,6.59-.01.72-.01.97.2.96.94-.04,3.15-.03,6.31,0,9.46,0,.71-.17.98-.93.97-4.39-.03-8.79-.03-13.18,0-.74,0-.95-.21-.94-.94.04-3.15.05-6.31,0-9.46-.01-.84.3-.98,1.04-.97,2.16.04,4.31.01,6.47.01Z"></path>
</svg>
